<?xml version="1.0" encoding="UTF-8" standalone="no"?>
<!DOCTYPE svg PUBLIC "-//W3C//DTD SVG 1.1//EN"
 "http://www.w3.org/Graphics/SVG/1.1/DTD/svg11.dtd">
<!-- Generated by graphviz version 2.40.1 (20161225.0304)
 -->
<!-- Title: dependencies Pages: 1 -->
<svg width="1461pt" height="284pt"
 viewBox="0.00 0.00 1461.00 284.00" xmlns="http://www.w3.org/2000/svg" xmlns:xlink="http://www.w3.org/1999/xlink">
<g id="graph0" class="graph" transform="scale(1 1) rotate(0) translate(4 280)">
<title>dependencies</title>
<polygon fill="#ffffff" stroke="transparent" points="-4,4 -4,-280 1457,-280 1457,4 -4,4"/>
<text text-anchor="start" x="705.5091" y="-42.4" font-family="sans-serif" font-weight="bold" font-size="14.00" fill="#000000">Legend</text>
<polygon fill="#ffffb3" stroke="transparent" points="492.5,-10 492.5,-30 512.5,-30 512.5,-10 492.5,-10"/>
<text text-anchor="start" x="516.129" y="-15.4" font-family="sans-serif" font-size="14.00" fill="#000000"> &#160;Declarations</text>
<polygon fill="#8dd3c7" stroke="transparent" points="605.5,-10 605.5,-30 625.5,-30 625.5,-10 605.5,-10"/>
<text text-anchor="start" x="629.2251" y="-15.4" font-family="sans-serif" font-size="14.00" fill="#000000"> &#160;Module</text>
<polygon fill="#80b1d3" stroke="transparent" points="691.5,-10 691.5,-30 711.5,-30 711.5,-10 691.5,-10"/>
<text text-anchor="start" x="715.2812" y="-15.4" font-family="sans-serif" font-size="14.00" fill="#000000"> &#160;Bootstrap</text>
<polygon fill="#fdb462" stroke="transparent" points="788.5,-10 788.5,-30 808.5,-30 808.5,-10 788.5,-10"/>
<text text-anchor="start" x="812.1732" y="-15.4" font-family="sans-serif" font-size="14.00" fill="#000000"> &#160;Providers</text>
<polygon fill="#fb8072" stroke="transparent" points="884.5,-10 884.5,-30 904.5,-30 904.5,-10 884.5,-10"/>
<text text-anchor="start" x="908.2258" y="-15.4" font-family="sans-serif" font-size="14.00" fill="#000000"> &#160;Exports</text>
<g id="clust1" class="cluster">
<title>cluster_AppModule</title>
<polygon fill="none" stroke="#000000" stroke-dasharray="1,5" points="8,-70 8,-268 1445,-268 1445,-70 8,-70"/>
</g>
<g id="clust2" class="cluster">
<title>cluster_AppModule_declarations</title>
<polygon fill="none" stroke="#000000" points="398,-78 398,-130 1437,-130 1437,-78 398,-78"/>
</g>
<g id="clust10" class="cluster">
<title>cluster_AppModule_imports</title>
<polygon fill="none" stroke="#000000" points="246,-78 246,-130 390,-130 390,-78 246,-78"/>
</g>
<g id="clust12" class="cluster">
<title>cluster_AppModule_bootstrap</title>
<polygon fill="none" stroke="#000000" points="779,-208 779,-260 903,-260 903,-208 779,-208"/>
</g>
<g id="clust13" class="cluster">
<title>cluster_AppModule_providers</title>
<polygon fill="none" stroke="#000000" points="16,-78 16,-130 238,-130 238,-78 16,-78"/>
</g>
<!-- AdminComponent -->
<g id="node1" class="node">
<title>AdminComponent</title>
<polygon fill="#ffffb3" stroke="#000000" points="1429.2204,-122 1308.7796,-122 1308.7796,-86 1429.2204,-86 1429.2204,-122"/>
<text text-anchor="middle" x="1369" y="-99.8" font-family="Times,serif" font-size="14.00" fill="#000000">AdminComponent</text>
</g>
<!-- AppModule -->
<g id="node8" class="node">
<title>AppModule</title>
<polygon fill="#8dd3c7" stroke="#000000" points="882.6571,-187 879.6571,-191 858.6571,-191 855.6571,-187 799.3429,-187 799.3429,-151 882.6571,-151 882.6571,-187"/>
<text text-anchor="middle" x="841" y="-164.8" font-family="Times,serif" font-size="14.00" fill="#000000">AppModule</text>
</g>
<!-- AdminComponent&#45;&gt;AppModule -->
<g id="edge1" class="edge">
<title>AdminComponent&#45;&gt;AppModule</title>
<path fill="none" stroke="#000000" d="M1369,-122.0109C1369,-144.4852 1369,-180 1369,-180 1369,-180 892.8726,-180 892.8726,-180"/>
<polygon fill="#000000" stroke="#000000" points="892.8726,-176.5001 882.8726,-180 892.8726,-183.5001 892.8726,-176.5001"/>
</g>
<!-- AppComponent -->
<g id="node2" class="node">
<title>AppComponent</title>
<polygon fill="#ffffb3" stroke="#000000" points="1290.9399,-122 1185.0601,-122 1185.0601,-86 1290.9399,-86 1290.9399,-122"/>
<text text-anchor="middle" x="1238" y="-99.8" font-family="Times,serif" font-size="14.00" fill="#000000">AppComponent</text>
</g>
<!-- AppComponent&#45;&gt;AppModule -->
<g id="edge2" class="edge">
<title>AppComponent&#45;&gt;AppModule</title>
<path fill="none" stroke="#000000" d="M1238,-122.1289C1238,-142.5724 1238,-173 1238,-173 1238,-173 892.7356,-173 892.7356,-173"/>
<polygon fill="#000000" stroke="#000000" points="892.7356,-169.5001 882.7356,-173 892.7356,-176.5001 892.7356,-169.5001"/>
</g>
<!-- HeaderComponent -->
<g id="node3" class="node">
<title>HeaderComponent</title>
<polygon fill="#ffffb3" stroke="#000000" points="1166.7437,-122 1045.2563,-122 1045.2563,-86 1166.7437,-86 1166.7437,-122"/>
<text text-anchor="middle" x="1106" y="-99.8" font-family="Times,serif" font-size="14.00" fill="#000000">HeaderComponent</text>
</g>
<!-- HeaderComponent&#45;&gt;AppModule -->
<g id="edge3" class="edge">
<title>HeaderComponent&#45;&gt;AppModule</title>
<path fill="none" stroke="#000000" d="M1106,-122.2667C1106,-140.5552 1106,-166 1106,-166 1106,-166 892.6978,-166 892.6978,-166"/>
<polygon fill="#000000" stroke="#000000" points="892.6978,-162.5001 882.6978,-166 892.6977,-169.5001 892.6978,-162.5001"/>
</g>
<!-- NavComponent -->
<g id="node4" class="node">
<title>NavComponent</title>
<polygon fill="#ffffb3" stroke="#000000" points="1027.1542,-122 922.8458,-122 922.8458,-86 1027.1542,-86 1027.1542,-122"/>
<text text-anchor="middle" x="975" y="-99.8" font-family="Times,serif" font-size="14.00" fill="#000000">NavComponent</text>
</g>
<!-- NavComponent&#45;&gt;AppModule -->
<g id="edge4" class="edge">
<title>NavComponent&#45;&gt;AppModule</title>
<path fill="none" stroke="#000000" d="M975,-122.0091C975,-138.0494 975,-159 975,-159 975,-159 892.6639,-159 892.6639,-159"/>
<polygon fill="#000000" stroke="#000000" points="892.6639,-155.5001 882.6639,-159 892.6639,-162.5001 892.6639,-155.5001"/>
</g>
<!-- ResumeComponent -->
<g id="node5" class="node">
<title>ResumeComponent</title>
<polygon fill="#ffffb3" stroke="#000000" points="904.4341,-122 777.5659,-122 777.5659,-86 904.4341,-86 904.4341,-122"/>
<text text-anchor="middle" x="841" y="-99.8" font-family="Times,serif" font-size="14.00" fill="#000000">ResumeComponent</text>
</g>
<!-- ResumeComponent&#45;&gt;AppModule -->
<g id="edge5" class="edge">
<title>ResumeComponent&#45;&gt;AppModule</title>
<path fill="none" stroke="#000000" d="M841,-122.1061C841,-122.1061 841,-140.991 841,-140.991"/>
<polygon fill="#000000" stroke="#000000" points="837.5001,-140.9909 841,-150.991 844.5001,-140.991 837.5001,-140.9909"/>
</g>
<!-- UnicornCardComponent -->
<g id="node6" class="node">
<title>UnicornCardComponent</title>
<polygon fill="#ffffb3" stroke="#000000" points="760.4172,-122 605.5828,-122 605.5828,-86 760.4172,-86 760.4172,-122"/>
<text text-anchor="middle" x="683" y="-99.8" font-family="Times,serif" font-size="14.00" fill="#000000">UnicornCardComponent</text>
</g>
<!-- UnicornCardComponent&#45;&gt;AppModule -->
<g id="edge6" class="edge">
<title>UnicornCardComponent&#45;&gt;AppModule</title>
<path fill="none" stroke="#000000" d="M683,-122.0091C683,-138.0494 683,-159 683,-159 683,-159 789.0737,-159 789.0737,-159"/>
<polygon fill="#000000" stroke="#000000" points="789.0738,-162.5001 799.0737,-159 789.0737,-155.5001 789.0738,-162.5001"/>
</g>
<!-- UnicornsListPageComponent -->
<g id="node7" class="node">
<title>UnicornsListPageComponent</title>
<polygon fill="#ffffb3" stroke="#000000" points="587.64,-122 406.36,-122 406.36,-86 587.64,-86 587.64,-122"/>
<text text-anchor="middle" x="497" y="-99.8" font-family="Times,serif" font-size="14.00" fill="#000000">UnicornsListPageComponent</text>
</g>
<!-- UnicornsListPageComponent&#45;&gt;AppModule -->
<g id="edge7" class="edge">
<title>UnicornsListPageComponent&#45;&gt;AppModule</title>
<path fill="none" stroke="#000000" d="M497,-122.2667C497,-140.5552 497,-166 497,-166 497,-166 789.1628,-166 789.1628,-166"/>
<polygon fill="#000000" stroke="#000000" points="789.1628,-169.5001 799.1628,-166 789.1627,-162.5001 789.1628,-169.5001"/>
</g>
<!-- AppComponent  -->
<g id="node10" class="node">
<title>AppComponent </title>
<polygon fill="#80b1d3" stroke="#000000" points="895.439,-252 786.561,-252 786.561,-216 895.439,-216 895.439,-252"/>
<text text-anchor="middle" x="841" y="-229.8" font-family="Times,serif" font-size="14.00" fill="#000000">AppComponent </text>
</g>
<!-- AppModule&#45;&gt;AppComponent  -->
<g id="edge9" class="edge">
<title>AppModule&#45;&gt;AppComponent </title>
<path fill="none" stroke="#000000" stroke-dasharray="1,5" d="M841,-187.1061C841,-187.1061 841,-205.991 841,-205.991"/>
<polygon fill="#000000" stroke="#000000" points="837.5001,-205.9909 841,-215.991 844.5001,-205.991 837.5001,-205.9909"/>
</g>
<!-- AppRoutingModule -->
<g id="node9" class="node">
<title>AppRoutingModule</title>
<polygon fill="#8dd3c7" stroke="#000000" points="382.2744,-122 379.2744,-126 358.2744,-126 355.2744,-122 253.7256,-122 253.7256,-86 382.2744,-86 382.2744,-122"/>
<text text-anchor="middle" x="318" y="-99.8" font-family="Times,serif" font-size="14.00" fill="#000000">AppRoutingModule</text>
</g>
<!-- AppRoutingModule&#45;&gt;AppModule -->
<g id="edge8" class="edge">
<title>AppRoutingModule&#45;&gt;AppModule</title>
<path fill="none" stroke="#000000" d="M318,-122.1289C318,-142.5724 318,-173 318,-173 318,-173 789.0848,-173 789.0848,-173"/>
<polygon fill="#000000" stroke="#000000" points="789.0848,-176.5001 799.0848,-173 789.0848,-169.5001 789.0848,-176.5001"/>
</g>
<!-- LoadingHttpInterceptor -->
<g id="node11" class="node">
<title>LoadingHttpInterceptor</title>
<ellipse fill="#fdb462" stroke="#000000" cx="127" cy="-104" rx="102.9899" ry="18"/>
<text text-anchor="middle" x="127" y="-99.8" font-family="Times,serif" font-size="14.00" fill="#000000">LoadingHttpInterceptor</text>
</g>
<!-- LoadingHttpInterceptor&#45;&gt;AppModule -->
<g id="edge10" class="edge">
<title>LoadingHttpInterceptor&#45;&gt;AppModule</title>
<path fill="none" stroke="#000000" d="M127,-122.0109C127,-144.4852 127,-180 127,-180 127,-180 789.2643,-180 789.2643,-180"/>
<polygon fill="#000000" stroke="#000000" points="789.2643,-183.5001 799.2643,-180 789.2642,-176.5001 789.2643,-183.5001"/>
</g>
</g>
</svg>
